<mxfile modified="2024-06-08T17:54:15.798Z" host="app.diagrams.net" version="24.5.2" type="device">
  <diagram id="Ht1M8jgEwFfnCIfOTk4-" name="Page-1">
    <mxGraphModel dx="265" dy="2424" grid="0" gridSize="10" guides="1" tooltips="1" connect="1" arrows="1" fold="1" page="1" pageScale="1" pageWidth="1169" pageHeight="827" math="0" shadow="0">
      <root>
        <mxCell id="0" />
        <mxCell id="1" parent="0" />
        <mxCell id="f-lOCSB0kdI33juGnjNB-1" value="" style="group" vertex="1" connectable="0" parent="1">
          <mxGeometry x="1757" y="-1635" width="896" height="790" as="geometry" />
        </mxCell>
        <mxCell id="XuZFaqXOmvAEpBI1sN46-1" value="AWS Cloud" style="points=[[0,0],[0.25,0],[0.5,0],[0.75,0],[1,0],[1,0.25],[1,0.5],[1,0.75],[1,1],[0.75,1],[0.5,1],[0.25,1],[0,1],[0,0.75],[0,0.5],[0,0.25]];outlineConnect=0;gradientColor=none;html=1;whiteSpace=wrap;fontSize=12;fontStyle=0;container=1;pointerEvents=0;collapsible=0;recursiveResize=0;shape=mxgraph.aws4.group;grIcon=mxgraph.aws4.group_aws_cloud_alt;strokeColor=#232F3E;fillColor=none;verticalAlign=top;align=left;spacingLeft=30;fontColor=#232F3E;dashed=0;" parent="f-lOCSB0kdI33juGnjNB-1" vertex="1">
          <mxGeometry width="896" height="790" as="geometry" />
        </mxCell>
        <mxCell id="XuZFaqXOmvAEpBI1sN46-9" value="&lt;div&gt;S3 free-content&lt;br&gt;&lt;/div&gt;" style="sketch=0;outlineConnect=0;fontColor=#232F3E;gradientColor=none;fillColor=#7AA116;strokeColor=none;dashed=0;verticalLabelPosition=bottom;verticalAlign=top;align=center;html=1;fontSize=12;fontStyle=0;aspect=fixed;pointerEvents=1;shape=mxgraph.aws4.s3_object_lock;" parent="XuZFaqXOmvAEpBI1sN46-1" vertex="1">
          <mxGeometry x="49" y="669" width="71" height="78" as="geometry" />
        </mxCell>
        <mxCell id="XuZFaqXOmvAEpBI1sN46-29" value="&lt;div&gt;S3 premium-content&lt;br&gt;&lt;/div&gt;" style="sketch=0;outlineConnect=0;fontColor=#232F3E;gradientColor=none;fillColor=#7AA116;strokeColor=none;dashed=0;verticalLabelPosition=bottom;verticalAlign=top;align=center;html=1;fontSize=12;fontStyle=0;aspect=fixed;pointerEvents=1;shape=mxgraph.aws4.s3_object_lock;" parent="XuZFaqXOmvAEpBI1sN46-1" vertex="1">
          <mxGeometry x="213" y="669" width="71" height="78" as="geometry" />
        </mxCell>
        <mxCell id="XuZFaqXOmvAEpBI1sN46-22" style="edgeStyle=orthogonalEdgeStyle;rounded=0;orthogonalLoop=1;jettySize=auto;html=1;" parent="f-lOCSB0kdI33juGnjNB-1" source="XuZFaqXOmvAEpBI1sN46-2" target="XuZFaqXOmvAEpBI1sN46-11" edge="1">
          <mxGeometry relative="1" as="geometry" />
        </mxCell>
        <mxCell id="XuZFaqXOmvAEpBI1sN46-33" style="edgeStyle=orthogonalEdgeStyle;rounded=0;orthogonalLoop=1;jettySize=auto;html=1;" parent="f-lOCSB0kdI33juGnjNB-1" source="XuZFaqXOmvAEpBI1sN46-2" target="XuZFaqXOmvAEpBI1sN46-3" edge="1">
          <mxGeometry relative="1" as="geometry">
            <Array as="points">
              <mxPoint x="274" y="338" />
            </Array>
          </mxGeometry>
        </mxCell>
        <mxCell id="XuZFaqXOmvAEpBI1sN46-34" value="&lt;div&gt;sets the membership&lt;/div&gt;&lt;div&gt;attribute&lt;br&gt;&lt;/div&gt;" style="edgeLabel;html=1;align=center;verticalAlign=middle;resizable=0;points=[];" parent="XuZFaqXOmvAEpBI1sN46-33" vertex="1" connectable="0">
          <mxGeometry x="-0.3312" y="-3" relative="1" as="geometry">
            <mxPoint x="-5" y="20" as="offset" />
          </mxGeometry>
        </mxCell>
        <mxCell id="XuZFaqXOmvAEpBI1sN46-2" value="membership-handler" style="outlineConnect=0;fontColor=#232F3E;gradientColor=#F78E04;gradientDirection=north;fillColor=#D05C17;strokeColor=#ffffff;dashed=0;verticalLabelPosition=bottom;verticalAlign=top;align=center;html=1;fontSize=12;fontStyle=0;aspect=fixed;shape=mxgraph.aws4.resourceIcon;resIcon=mxgraph.aws4.lambda;labelBackgroundColor=#ffffff;spacingTop=3;" parent="f-lOCSB0kdI33juGnjNB-1" vertex="1">
          <mxGeometry x="231" y="518" width="78" height="78" as="geometry" />
        </mxCell>
        <mxCell id="XuZFaqXOmvAEpBI1sN46-30" style="edgeStyle=orthogonalEdgeStyle;rounded=0;orthogonalLoop=1;jettySize=auto;html=1;" parent="f-lOCSB0kdI33juGnjNB-1" source="XuZFaqXOmvAEpBI1sN46-3" edge="1">
          <mxGeometry relative="1" as="geometry">
            <mxPoint x="95" y="237" as="targetPoint" />
          </mxGeometry>
        </mxCell>
        <mxCell id="XuZFaqXOmvAEpBI1sN46-3" value="&lt;div&gt;Cognito user pool&lt;/div&gt;&lt;div&gt;with public client&lt;br&gt;&lt;/div&gt;" style="outlineConnect=0;fontColor=#232F3E;gradientColor=#F54749;gradientDirection=north;fillColor=#C7131F;strokeColor=#ffffff;dashed=0;verticalLabelPosition=bottom;verticalAlign=top;align=center;html=1;fontSize=12;fontStyle=0;aspect=fixed;shape=mxgraph.aws4.resourceIcon;resIcon=mxgraph.aws4.cognito;labelBackgroundColor=#ffffff;" parent="f-lOCSB0kdI33juGnjNB-1" vertex="1">
          <mxGeometry x="56" y="296" width="78" height="78" as="geometry" />
        </mxCell>
        <mxCell id="XuZFaqXOmvAEpBI1sN46-21" style="edgeStyle=orthogonalEdgeStyle;rounded=0;orthogonalLoop=1;jettySize=auto;html=1;curved=1;" parent="f-lOCSB0kdI33juGnjNB-1" source="XuZFaqXOmvAEpBI1sN46-8" target="XuZFaqXOmvAEpBI1sN46-2" edge="1">
          <mxGeometry relative="1" as="geometry" />
        </mxCell>
        <mxCell id="XuZFaqXOmvAEpBI1sN46-8" value="&lt;div&gt;API Gateway&lt;/div&gt;&lt;div&gt;/membership&lt;br&gt;&lt;/div&gt;" style="sketch=0;points=[[0,0,0],[0.25,0,0],[0.5,0,0],[0.75,0,0],[1,0,0],[0,1,0],[0.25,1,0],[0.5,1,0],[0.75,1,0],[1,1,0],[0,0.25,0],[0,0.5,0],[0,0.75,0],[1,0.25,0],[1,0.5,0],[1,0.75,0]];outlineConnect=0;fontColor=#232F3E;fillColor=#8C4FFF;strokeColor=#ffffff;dashed=0;verticalLabelPosition=bottom;verticalAlign=top;align=center;html=1;fontSize=12;fontStyle=0;aspect=fixed;shape=mxgraph.aws4.resourceIcon;resIcon=mxgraph.aws4.api_gateway;" parent="f-lOCSB0kdI33juGnjNB-1" vertex="1">
          <mxGeometry x="50" y="518" width="78" height="78" as="geometry" />
        </mxCell>
        <mxCell id="XuZFaqXOmvAEpBI1sN46-10" value="" style="sketch=0;outlineConnect=0;fontColor=#232F3E;gradientColor=none;fillColor=#DD344C;strokeColor=none;dashed=0;verticalLabelPosition=bottom;verticalAlign=top;align=center;html=1;fontSize=12;fontStyle=0;aspect=fixed;pointerEvents=1;shape=mxgraph.aws4.addon;" parent="f-lOCSB0kdI33juGnjNB-1" vertex="1">
          <mxGeometry x="69.5" y="442" width="39" height="20" as="geometry" />
        </mxCell>
        <mxCell id="XuZFaqXOmvAEpBI1sN46-11" value="lambda-role" style="sketch=0;outlineConnect=0;fontColor=#232F3E;gradientColor=none;fillColor=#DD344C;strokeColor=none;dashed=0;verticalLabelPosition=bottom;verticalAlign=top;align=center;html=1;fontSize=12;fontStyle=0;aspect=fixed;pointerEvents=1;shape=mxgraph.aws4.role;" parent="f-lOCSB0kdI33juGnjNB-1" vertex="1">
          <mxGeometry x="417" y="535" width="78" height="44" as="geometry" />
        </mxCell>
        <mxCell id="XuZFaqXOmvAEpBI1sN46-18" style="edgeStyle=orthogonalEdgeStyle;rounded=0;orthogonalLoop=1;jettySize=auto;html=1;entryX=0.5;entryY=0;entryDx=0;entryDy=0;entryPerimeter=0;" parent="f-lOCSB0kdI33juGnjNB-1" source="XuZFaqXOmvAEpBI1sN46-10" target="XuZFaqXOmvAEpBI1sN46-8" edge="1">
          <mxGeometry relative="1" as="geometry" />
        </mxCell>
        <mxCell id="XuZFaqXOmvAEpBI1sN46-20" value="IAM Authorization" style="edgeLabel;html=1;align=center;verticalAlign=middle;resizable=0;points=[];" parent="XuZFaqXOmvAEpBI1sN46-18" vertex="1" connectable="0">
          <mxGeometry x="0.2582" y="1" relative="1" as="geometry">
            <mxPoint x="-1" y="-9" as="offset" />
          </mxGeometry>
        </mxCell>
        <mxCell id="XuZFaqXOmvAEpBI1sN46-27" style="edgeStyle=orthogonalEdgeStyle;rounded=0;orthogonalLoop=1;jettySize=auto;html=1;entryX=0;entryY=0.25;entryDx=0;entryDy=0;" parent="f-lOCSB0kdI33juGnjNB-1" source="XuZFaqXOmvAEpBI1sN46-4" target="XuZFaqXOmvAEpBI1sN46-12" edge="1">
          <mxGeometry relative="1" as="geometry" />
        </mxCell>
        <mxCell id="XuZFaqXOmvAEpBI1sN46-4" value="&lt;div&gt;IAM Role&lt;/div&gt;&lt;div&gt;(authenticated user)&lt;br&gt;&lt;/div&gt;" style="sketch=0;outlineConnect=0;fontColor=#232F3E;gradientColor=none;fillColor=#DD344C;strokeColor=none;dashed=0;verticalLabelPosition=bottom;verticalAlign=top;align=center;html=1;fontSize=12;fontStyle=0;aspect=fixed;pointerEvents=1;shape=mxgraph.aws4.role;" parent="f-lOCSB0kdI33juGnjNB-1" vertex="1">
          <mxGeometry x="284" y="145" width="78" height="44" as="geometry" />
        </mxCell>
        <mxCell id="XuZFaqXOmvAEpBI1sN46-23" style="edgeStyle=orthogonalEdgeStyle;rounded=0;orthogonalLoop=1;jettySize=auto;html=1;" parent="f-lOCSB0kdI33juGnjNB-1" source="XuZFaqXOmvAEpBI1sN46-6" target="XuZFaqXOmvAEpBI1sN46-4" edge="1">
          <mxGeometry relative="1" as="geometry" />
        </mxCell>
        <mxCell id="XuZFaqXOmvAEpBI1sN46-6" value="Cognito identity pool" style="outlineConnect=0;fontColor=#232F3E;gradientColor=#F54749;gradientDirection=north;fillColor=#C7131F;strokeColor=#ffffff;dashed=0;verticalLabelPosition=bottom;verticalAlign=top;align=center;html=1;fontSize=12;fontStyle=0;aspect=fixed;shape=mxgraph.aws4.resourceIcon;resIcon=mxgraph.aws4.cognito;labelBackgroundColor=#ffffff;" parent="f-lOCSB0kdI33juGnjNB-1" vertex="1">
          <mxGeometry x="64" y="128" width="78" height="78" as="geometry" />
        </mxCell>
        <mxCell id="XuZFaqXOmvAEpBI1sN46-14" value="" style="group" parent="f-lOCSB0kdI33juGnjNB-1" vertex="1" connectable="0">
          <mxGeometry x="508" y="15" width="371" height="145.5" as="geometry" />
        </mxCell>
        <mxCell id="XuZFaqXOmvAEpBI1sN46-12" value="&lt;div style=&quot;font-size: 14px;&quot; align=&quot;left&quot;&gt;&lt;ul&gt;&lt;li&gt;&lt;font style=&quot;font-size: 14px;&quot;&gt;Restricts the policy to this specific identity pool&lt;/font&gt;&lt;/li&gt;&lt;li data-list=&quot;bullet&quot;&gt;&lt;font style=&quot;font-size: 14px;&quot;&gt;And it makes sure that it&#39;s for an authenticated role&lt;/font&gt;&lt;/li&gt;&lt;/ul&gt;&lt;/div&gt;&lt;p&gt;&lt;/p&gt;" style="text;html=1;whiteSpace=wrap;overflow=hidden;rounded=0;" parent="XuZFaqXOmvAEpBI1sN46-14" vertex="1">
          <mxGeometry x="-2" y="15.5" width="371" height="93.5" as="geometry" />
        </mxCell>
        <mxCell id="XuZFaqXOmvAEpBI1sN46-13" value="&lt;h1 style=&quot;margin-top: 0px; font-size: 15px;&quot;&gt;&lt;font style=&quot;font-size: 15px;&quot;&gt;Trust Policy&lt;/font&gt;&lt;/h1&gt;" style="text;whiteSpace=wrap;html=1;" parent="XuZFaqXOmvAEpBI1sN46-14" vertex="1">
          <mxGeometry x="24" width="119" height="31" as="geometry" />
        </mxCell>
        <mxCell id="XuZFaqXOmvAEpBI1sN46-25" value="&lt;div style=&quot;font-size: 14px;&quot; align=&quot;left&quot;&gt;&lt;ul&gt;&lt;li&gt;Can invoke the API to become a premium user&lt;br&gt;&lt;/li&gt;&lt;li data-list=&quot;bullet&quot;&gt;Access to the free-content S3 bucket&lt;/li&gt;&lt;li data-list=&quot;bullet&quot;&gt;Conditional policy for premium users to access the premium-content bucket&lt;br&gt;&lt;/li&gt;&lt;/ul&gt;&lt;/div&gt;&lt;p&gt;&lt;/p&gt;" style="text;html=1;whiteSpace=wrap;overflow=hidden;rounded=0;" parent="f-lOCSB0kdI33juGnjNB-1" vertex="1">
          <mxGeometry x="503" y="136" width="371" height="93.5" as="geometry" />
        </mxCell>
        <mxCell id="XuZFaqXOmvAEpBI1sN46-26" value="&lt;h1 style=&quot;margin-top: 0px; font-size: 15px;&quot;&gt;&lt;font style=&quot;font-size: 15px;&quot;&gt;Permission Policy&lt;/font&gt;&lt;/h1&gt;" style="text;whiteSpace=wrap;html=1;" parent="f-lOCSB0kdI33juGnjNB-1" vertex="1">
          <mxGeometry x="529" y="120.5" width="155" height="31" as="geometry" />
        </mxCell>
        <mxCell id="XuZFaqXOmvAEpBI1sN46-28" style="edgeStyle=orthogonalEdgeStyle;rounded=0;orthogonalLoop=1;jettySize=auto;html=1;entryX=-0.008;entryY=0.332;entryDx=0;entryDy=0;entryPerimeter=0;" parent="f-lOCSB0kdI33juGnjNB-1" source="XuZFaqXOmvAEpBI1sN46-4" target="XuZFaqXOmvAEpBI1sN46-25" edge="1">
          <mxGeometry relative="1" as="geometry" />
        </mxCell>
        <mxCell id="XuZFaqXOmvAEpBI1sN46-35" value="&lt;div style=&quot;font-size: 14px;&quot; align=&quot;left&quot;&gt;Has admin permission to update the attributes of all users&lt;br&gt;&lt;/div&gt;&lt;p&gt;&lt;/p&gt;" style="text;html=1;whiteSpace=wrap;overflow=hidden;rounded=0;" parent="f-lOCSB0kdI33juGnjNB-1" vertex="1">
          <mxGeometry x="525" y="539.75" width="235" height="34.5" as="geometry" />
        </mxCell>
        <mxCell id="f-lOCSB0kdI33juGnjNB-11" value="" style="endArrow=classic;html=1;rounded=0;exitX=0.997;exitY=0.574;exitDx=0;exitDy=0;exitPerimeter=0;" edge="1" parent="1" source="f-lOCSB0kdI33juGnjNB-7">
          <mxGeometry width="50" height="50" relative="1" as="geometry">
            <mxPoint x="1348" y="-1294" as="sourcePoint" />
            <mxPoint x="1743" y="-1294" as="targetPoint" />
          </mxGeometry>
        </mxCell>
        <mxCell id="f-lOCSB0kdI33juGnjNB-12" value="&lt;font style=&quot;font-size: 14px; background-color: rgb(213, 232, 212);&quot;&gt;1) Authentication&lt;/font&gt;" style="edgeLabel;html=1;align=center;verticalAlign=middle;resizable=0;points=[];" vertex="1" connectable="0" parent="f-lOCSB0kdI33juGnjNB-11">
          <mxGeometry x="0.2946" relative="1" as="geometry">
            <mxPoint x="-64" y="-1" as="offset" />
          </mxGeometry>
        </mxCell>
        <mxCell id="f-lOCSB0kdI33juGnjNB-14" value="" style="group;strokeWidth=0;fillColor=#eeeeee;strokeColor=#36393d;" vertex="1" connectable="0" parent="1">
          <mxGeometry x="1198" y="-1372" width="191.54999999999995" height="136" as="geometry" />
        </mxCell>
        <mxCell id="f-lOCSB0kdI33juGnjNB-7" value="" style="sketch=0;pointerEvents=1;shadow=0;dashed=0;html=1;strokeColor=none;fillColor=#434445;aspect=fixed;labelPosition=center;verticalLabelPosition=bottom;verticalAlign=top;align=center;outlineConnect=0;shape=mxgraph.vvd.web_browser;" vertex="1" parent="f-lOCSB0kdI33juGnjNB-14">
          <mxGeometry width="191.55" height="136" as="geometry" />
        </mxCell>
        <mxCell id="f-lOCSB0kdI33juGnjNB-13" value="" style="rounded=0;whiteSpace=wrap;html=1;strokeColor=none;fillColor=#eeeeee;" vertex="1" parent="f-lOCSB0kdI33juGnjNB-14">
          <mxGeometry x="44" y="43" width="120" height="76" as="geometry" />
        </mxCell>
        <mxCell id="f-lOCSB0kdI33juGnjNB-20" value="&lt;font style=&quot;font-size: 15px;&quot;&gt;The client application&lt;/font&gt;" style="text;html=1;align=center;verticalAlign=middle;whiteSpace=wrap;rounded=0;" vertex="1" parent="f-lOCSB0kdI33juGnjNB-14">
          <mxGeometry x="18.779999999999973" y="61" width="154" height="30" as="geometry" />
        </mxCell>
        <mxCell id="f-lOCSB0kdI33juGnjNB-15" value="" style="endArrow=classic;html=1;rounded=0;" edge="1" parent="1" source="f-lOCSB0kdI33juGnjNB-7">
          <mxGeometry width="50" height="50" relative="1" as="geometry">
            <mxPoint x="1348" y="-1523" as="sourcePoint" />
            <mxPoint x="1749" y="-1461" as="targetPoint" />
          </mxGeometry>
        </mxCell>
        <mxCell id="f-lOCSB0kdI33juGnjNB-16" value="&lt;span style=&quot;background-color: rgb(213, 232, 212);&quot;&gt;&amp;nbsp;&lt;font style=&quot;font-size: 14px;&quot;&gt;2) Get temporary credentials &lt;br&gt;&lt;/font&gt;&lt;/span&gt;" style="edgeLabel;html=1;align=center;verticalAlign=middle;resizable=0;points=[];" vertex="1" connectable="0" parent="f-lOCSB0kdI33juGnjNB-15">
          <mxGeometry x="0.2946" relative="1" as="geometry">
            <mxPoint x="-45" y="16" as="offset" />
          </mxGeometry>
        </mxCell>
        <mxCell id="f-lOCSB0kdI33juGnjNB-18" value="" style="endArrow=classic;html=1;rounded=0;" edge="1" parent="1" source="f-lOCSB0kdI33juGnjNB-7">
          <mxGeometry width="50" height="50" relative="1" as="geometry">
            <mxPoint x="1270" y="-1088" as="sourcePoint" />
            <mxPoint x="1727" y="-1044" as="targetPoint" />
          </mxGeometry>
        </mxCell>
        <mxCell id="f-lOCSB0kdI33juGnjNB-19" value="&lt;div style=&quot;font-size: 14px;&quot;&gt;&lt;span style=&quot;background-color: rgb(213, 232, 212);&quot;&gt;3) Access the resources using&amp;nbsp;&lt;/span&gt;&lt;/div&gt;&lt;div style=&quot;font-size: 14px;&quot;&gt;&lt;span style=&quot;background-color: rgb(213, 232, 212);&quot;&gt;the obtained temporary credentials&lt;/span&gt;&lt;/div&gt;" style="edgeLabel;html=1;align=center;verticalAlign=middle;resizable=0;points=[];" vertex="1" connectable="0" parent="f-lOCSB0kdI33juGnjNB-18">
          <mxGeometry x="0.1649" y="-1" relative="1" as="geometry">
            <mxPoint x="-17" y="-9" as="offset" />
          </mxGeometry>
        </mxCell>
      </root>
    </mxGraphModel>
  </diagram>
</mxfile>
